<?xml version="1.0" encoding="utf-8"?>
<svg version="1.1" id="Layer_1" xmlns="http://www.w3.org/2000/svg" xmlns:xlink="http://www.w3.org/1999/xlink" x="0px" y="0px"
	 viewBox="0 0 106.8 41.5" style="enable-background:new 0 0 106.8 41.5;" xml:space="preserve">
<style type="text/css">
	.st0{fill:#00B38D;}
	.st1{fill:#FFF;}
</style>
<g>
	<path id="element_6_" class="st0" d="M0,0v9.5l0,0h33.2V0H0z M31.1,7.5h-29V2.1h29V7.5z"/>
	<path class="st1" d="M6,29.4v1.2H1.3v2.9h4.3v1.1H1.3v3.2H6v1.2H0v-9.5H6z M9.3,38.9H8v-7h1.2v1.3c0.5-0.9,1.3-1.5,2.3-1.5
		c1.6,0,2.6,1.1,2.6,2.7v4.5h-1.3v-4.5c0-0.9-0.5-1.5-1.6-1.5c-0.9,0-1.7,0.6-2,1.5V38.9z M19.5,39c-1.8,0-2.5-0.8-2.5-2.2V33h-1.5
		v-1.1H17v-1.8h1.3v1.8h2V33h-2v3.8c0,0.8,0.5,1.1,1.3,1.1c0.2,0,0.4,0,0.6-0.1h0.1v1.1C20.1,39,19.9,39,19.5,39z M25.2,39
		c-2.3,0-3.8-1.4-3.8-3.6c0-2.2,1.4-3.7,3.4-3.7c2.1,0,3.1,1.4,3.1,3.4v0.7h-5.2c0.2,1.4,1.2,2,2.5,2c0.8,0,1.4-0.1,2.1-0.6h0.1v1.1
		C26.8,38.9,26,39,25.2,39z M22.7,34.8h3.9c0-1.3-0.7-2-1.8-2C23.7,32.9,22.9,33.7,22.7,34.8z M33.6,33.2c-0.2-0.1-0.5-0.2-0.7-0.2
		c-0.8,0-1.5,0.6-1.8,1.5v4.3h-1.3v-7H31v1.5c0.4-1.1,1.2-1.6,2-1.6c0.3,0,0.6,0,0.7,0.1v1.3H33.6z M36.3,37.7v3.7H35v-9.6h1.2v1.2
		c0.4-0.7,1.2-1.4,2.3-1.4c2.1,0,3.2,1.7,3.2,3.6c0,2-1.1,3.7-3.2,3.7C37.5,39,36.7,38.4,36.3,37.7z M40.4,35.3
		c0-1.4-0.8-2.4-2.2-2.4c-0.8,0-1.5,0.4-1.9,1.2v2.4c0.4,0.7,1.1,1.2,1.9,1.2C39.6,37.8,40.4,36.8,40.4,35.3z M47.5,33.2
		C47.3,33.1,47,33,46.7,33c-0.8,0-1.5,0.6-1.8,1.5v4.3h-1.3v-7h1.2v1.5c0.4-1.1,1.2-1.6,2-1.6c0.3,0,0.6,0,0.7,0.1v1.3H47.5z
		 M49.7,31.2c-0.5,0-0.9-0.4-0.9-0.9c0-0.5,0.4-0.9,0.9-0.9c0.5,0,0.9,0.4,0.9,0.9C50.6,30.8,50.2,31.2,49.7,31.2z M50.3,38.9H49v-7
		h1.3V38.9z M52.4,37.2h0.1c0.6,0.5,1.4,0.7,2.2,0.7c0.8,0,1.4-0.3,1.4-0.9c0-0.6-0.6-0.8-1.7-1.1c-1-0.3-2.1-0.7-2.1-2
		c0-1.4,1.1-2.2,2.6-2.2c0.8,0,1.6,0.2,2.2,0.6v1.2H57c-0.5-0.4-1.2-0.7-2-0.7c-0.8,0-1.3,0.4-1.3,0.9c0,0.6,0.5,0.7,1.6,1.1
		c1,0.3,2.2,0.7,2.2,2.1c0,1.4-1.2,2.2-2.7,2.2c-0.9,0-1.9-0.2-2.4-0.6V37.2z M62.8,39c-2.3,0-3.8-1.4-3.8-3.6
		c0-2.2,1.4-3.7,3.4-3.7c2.1,0,3.1,1.4,3.1,3.4v0.7h-5.2c0.2,1.4,1.2,2,2.5,2c0.8,0,1.4-0.1,2.1-0.6H65v1.1
		C64.4,38.9,63.6,39,62.8,39z M60.4,34.8h3.9c0-1.3-0.7-2-1.8-2C61.3,32.9,60.5,33.7,60.4,34.8z M8,15.8v9.5H5.9v-4H2.1v4H0v-9.5
		h2.1v3.8h3.9v-3.8H8z M13.6,25.5c-2.6,0-4-1.4-4-3.7c0-2.3,1.5-3.8,3.6-3.8c2.3,0,3.4,1.4,3.4,3.6v0.8h-4.9c0.2,1.2,1.1,1.5,2,1.5
		c0.8,0,1.5-0.1,2.1-0.5h0.2v1.5C15.5,25.3,14.5,25.5,13.6,25.5z M11.7,21h2.9c-0.1-1.1-0.5-1.5-1.4-1.5
		C12.5,19.5,11.9,19.8,11.7,21z M19.1,25.3l-1.5-6.9v-0.2h1.9l0.8,4.4l0.2,1.4l0.3-1.4l1-4.4h2.2l1,4.4l0.3,1.4l0.2-1.4l0.8-4.4H28
		v0.2l-1.5,6.9h-2.7L23,21.5L22.8,20l-0.2,1.4l-0.8,3.8H19.1z M31.7,25.5c-1.5,0-2.3-0.7-2.3-2.3v-7.4h2.1V23c0,0.5,0.2,0.7,0.7,0.7
		c0.2,0,0.4,0,0.5-0.1h0v1.7C32.5,25.4,32.1,25.5,31.7,25.5z M37.4,25.5c-2.6,0-4-1.4-4-3.7c0-2.3,1.5-3.8,3.6-3.8
		c2.3,0,3.4,1.4,3.4,3.6v0.8h-4.9c0.2,1.2,1.1,1.5,2,1.5c0.8,0,1.5-0.1,2.1-0.5h0.2v1.5C39.3,25.3,38.3,25.5,37.4,25.5z M35.5,21
		h2.9c-0.1-1.1-0.5-1.5-1.4-1.5C36.3,19.5,35.6,19.8,35.5,21z M47.4,22.7v-2.9h-3v2.8c0,0.7,0.2,1.1,0.9,1.1c0.2,0,0.5-0.1,0.6-0.1
		h0.2v1.7c-0.3,0.1-0.7,0.2-1.3,0.2c-1.8,0-2.5-0.8-2.5-2.8v-2.9h-1.2v-1.7h1.2v-1.7h2.1v1.7h3v-1.7h2.1v1.7h1.7v1.7h-1.7v2.8
		c0,0.7,0.2,1.1,0.9,1.1c0.2,0,0.5-0.1,0.6-0.1h0.2v1.7c-0.3,0.1-0.7,0.2-1.3,0.2C48.2,25.5,47.4,24.6,47.4,22.7z M57.3,22.3v2.9
		h-2.1v-9.5H59c2.1,0,3.5,1.2,3.5,3.3c0,2.1-1.4,3.3-3.5,3.3H57.3z M58.8,17.5h-1.5v3.1h1.5c1.1,0,1.6-0.6,1.6-1.5
		C60.4,18.1,59.9,17.5,58.8,17.5z M67.7,24.2c-0.4,0.8-1.2,1.1-2.2,1.1c-1.3,0-2.4-0.8-2.4-2.2c0-1.4,1-2.2,2.8-2.2
		c0.6,0,1.2,0.1,1.8,0.2v-0.4c0-0.8-0.5-1.1-1.6-1.1c-0.8,0-1.4,0.2-2,0.4h-0.2v-1.6c0.5-0.3,1.5-0.5,2.5-0.5c2.2,0,3.4,1,3.4,2.8
		v4.5h-2V24.2z M67.7,23v-0.9C67.3,22,66.9,22,66.5,22c-0.8,0-1.3,0.3-1.3,1s0.4,0.9,1.1,0.9C66.9,23.9,67.5,23.6,67.7,23z
		 M71.2,21.7c0-2.3,1.6-3.8,3.8-3.8c0.9,0,1.5,0.2,2,0.5v1.8h-0.2c-0.4-0.3-0.9-0.5-1.6-0.5c-1,0-1.8,0.7-1.8,2
		c0,1.2,0.8,1.9,1.8,1.9c0.6,0,1.1-0.2,1.6-0.5H77v1.8c-0.5,0.3-1.1,0.5-2,0.5C72.9,25.5,71.2,24,71.2,21.7z M80.7,21.8v3.5h-2.1
		v-9.5h2.1v5.4l0.5-0.7l1.9-2.3h2.2v0.2l-2.7,3l2.7,3.7v0.2h-2.3l-1.8-2.6L80.7,21.8z M90.3,24.2c-0.4,0.8-1.2,1.1-2.2,1.1
		c-1.3,0-2.4-0.8-2.4-2.2c0-1.4,1-2.2,2.8-2.2c0.6,0,1.2,0.1,1.8,0.2v-0.4c0-0.8-0.5-1.1-1.6-1.1c-0.8,0-1.4,0.2-2,0.4h-0.2v-1.6
		c0.5-0.3,1.5-0.5,2.5-0.5c2.2,0,3.4,1,3.4,2.8v4.5h-2V24.2z M90.3,23v-0.9C89.9,22,89.5,22,89.1,22c-0.8,0-1.3,0.3-1.3,1
		s0.4,0.9,1.1,0.9C89.5,23.9,90.1,23.6,90.3,23z M96.2,19.6c0.4-1.1,1.2-1.5,2-1.5c0.3,0,0.5,0.1,0.6,0.1v2h-0.2
		C98.4,20,98.2,20,97.9,20c-0.8,0-1.4,0.4-1.6,1.2v4.1h-2.1v-7.2h2V19.6z M104.8,24.3c-0.5,0.7-1.2,1.2-2.2,1.2
		c-2,0-3.2-1.6-3.2-3.7c0-2.2,1.2-3.8,3.2-3.8c0.9,0,1.6,0.4,2.1,1v-3.2h2.1v9.5h-2V24.3z M104.7,23v-2.5c-0.4-0.5-0.9-0.8-1.5-0.8
		c-0.9,0-1.6,0.7-1.6,2.1c0,1.3,0.6,2,1.6,2C103.8,23.8,104.3,23.5,104.7,23z"/>
</g>
</svg>
