<?xml version="1.0" encoding="utf-8"?>
<!-- Generator: Adobe Illustrator 20.0.0, SVG Export Plug-In . SVG Version: 6.00 Build 0)  -->
<svg version="1.1" id="Layer_1" xmlns="http://www.w3.org/2000/svg" xmlns:xlink="http://www.w3.org/1999/xlink" x="0px" y="0px"
	 viewBox="0 0 583.7 104.7" style="enable-background:new 0 0 583.7 104.7;" xml:space="preserve">
<style type="text/css">
	.st0{fill:#0096D6;}
	.st1{opacity:0.5;}
</style>
<g>
	<path class="st0" d="M22.1,20.7c-4.1,0-7.4-3.3-7.4-7.4c0-4.1,3.3-7.4,7.4-7.4c4.1,0,7.4,3.3,7.4,7.4
		C29.5,17.4,26.1,20.7,22.1,20.7z M22.1,8.7c-2.6,0-4.7,2.1-4.7,4.6c0,2.6,2.1,4.7,4.7,4.7c2.6,0,4.6-2.1,4.6-4.7
		C26.7,10.7,24.6,8.7,22.1,8.7z"/>
	<path class="st0" d="M37.2,45.6h-2.8v-8.3c0-6.8-5.6-12.4-12.4-12.4S9.6,30.4,9.6,37.2v8.3H6.9v-8.3c0-8.3,6.8-15.1,15.2-15.1
		c8.4,0,15.2,6.8,15.2,15.1V45.6z"/>
	<rect x="27.6" y="35.9" class="st0" width="2.8" height="9.6"/>
	<rect x="13.8" y="35.9" class="st0" width="2.8" height="9.6"/>
</g>
<g>
	<path class="st0" d="M58.2,20.7c-4.1,0-7.4-3.3-7.4-7.4c0-4.1,3.3-7.4,7.4-7.4c4.1,0,7.4,3.3,7.4,7.4
		C65.6,17.4,62.3,20.7,58.2,20.7z M58.2,8.7c-2.6,0-4.7,2.1-4.7,4.6c0,2.6,2.1,4.7,4.7,4.7c2.6,0,4.6-2.1,4.6-4.7
		C62.8,10.7,60.7,8.7,58.2,8.7z"/>
	<path class="st0" d="M73.3,45.6h-2.8v-8.3c0-6.8-5.6-12.4-12.4-12.4s-12.4,5.5-12.4,12.4v8.3H43v-8.3c0-8.3,6.8-15.1,15.2-15.1
		c8.4,0,15.2,6.8,15.2,15.1V45.6z"/>
	<rect x="63.7" y="35.9" class="st0" width="2.8" height="9.6"/>
	<rect x="49.9" y="35.9" class="st0" width="2.8" height="9.6"/>
</g>
<g>
	<path class="st0" d="M94.3,20.7c-4.1,0-7.4-3.3-7.4-7.4c0-4.1,3.3-7.4,7.4-7.4c4.1,0,7.4,3.3,7.4,7.4
		C101.7,17.4,98.4,20.7,94.3,20.7z M94.3,8.7c-2.6,0-4.7,2.1-4.7,4.6c0,2.6,2.1,4.7,4.7,4.7c2.6,0,4.6-2.1,4.6-4.7
		C98.9,10.7,96.9,8.7,94.3,8.7z"/>
	<path class="st0" d="M109.4,45.6h-2.8v-8.3c0-6.8-5.6-12.4-12.4-12.4c-6.8,0-12.4,5.5-12.4,12.4v8.3h-2.8v-8.3
		c0-8.3,6.8-15.1,15.2-15.1c8.4,0,15.2,6.8,15.2,15.1V45.6z"/>
	<rect x="99.8" y="35.9" class="st0" width="2.8" height="9.6"/>
	<rect x="86" y="35.9" class="st0" width="2.8" height="9.6"/>
</g>
<g>
	<path class="st0" d="M130.4,20.7c-4.1,0-7.4-3.3-7.4-7.4c0-4.1,3.3-7.4,7.4-7.4c4.1,0,7.4,3.3,7.4,7.4
		C137.8,17.4,134.5,20.7,130.4,20.7z M130.4,8.7c-2.6,0-4.7,2.1-4.7,4.6c0,2.6,2.1,4.7,4.7,4.7c2.6,0,4.6-2.1,4.6-4.7
		C135.1,10.7,133,8.7,130.4,8.7z"/>
	<path class="st0" d="M145.6,45.6h-2.8v-8.3c0-6.8-5.6-12.4-12.4-12.4S118,30.4,118,37.2v8.3h-2.8v-8.3c0-8.3,6.8-15.1,15.2-15.1
		c8.4,0,15.2,6.8,15.2,15.1V45.6z"/>
	<rect x="135.9" y="35.9" class="st0" width="2.8" height="9.6"/>
	<rect x="122.1" y="35.9" class="st0" width="2.8" height="9.6"/>
</g>
<g>
	<path class="st0" d="M166.5,20.7c-4.1,0-7.4-3.3-7.4-7.4c0-4.1,3.3-7.4,7.4-7.4c4.1,0,7.4,3.3,7.4,7.4
		C173.9,17.4,170.6,20.7,166.5,20.7z M166.5,8.7c-2.6,0-4.7,2.1-4.7,4.6c0,2.6,2.1,4.7,4.7,4.7c2.6,0,4.6-2.1,4.6-4.7
		C171.2,10.7,169.1,8.7,166.5,8.7z"/>
	<path class="st0" d="M181.7,45.6h-2.8v-8.3c0-6.8-5.6-12.4-12.4-12.4s-12.4,5.5-12.4,12.4v8.3h-2.8v-8.3c0-8.3,6.8-15.1,15.2-15.1
		c8.4,0,15.2,6.8,15.2,15.1V45.6z"/>
	<rect x="172" y="35.9" class="st0" width="2.8" height="9.6"/>
	<rect x="158.3" y="35.9" class="st0" width="2.8" height="9.6"/>
</g>
<g>
	<path class="st0" d="M202.7,20.7c-4.1,0-7.4-3.3-7.4-7.4c0-4.1,3.3-7.4,7.4-7.4c4.1,0,7.4,3.3,7.4,7.4
		C210.1,17.4,206.7,20.7,202.7,20.7z M202.7,8.7c-2.6,0-4.7,2.1-4.7,4.6c0,2.6,2.1,4.7,4.7,4.7c2.6,0,4.6-2.1,4.6-4.7
		C207.3,10.7,205.2,8.7,202.7,8.7z"/>
	<path class="st0" d="M217.8,45.6h-2.8v-8.3c0-6.8-5.6-12.4-12.4-12.4s-12.4,5.5-12.4,12.4v8.3h-2.8v-8.3c0-8.3,6.8-15.1,15.2-15.1
		c8.4,0,15.2,6.8,15.2,15.1V45.6z"/>
	<rect x="208.2" y="35.9" class="st0" width="2.8" height="9.6"/>
	<rect x="194.4" y="35.9" class="st0" width="2.8" height="9.6"/>
</g>
<g>
	<path class="st0" d="M274.9,20.7c-4.1,0-7.4-3.3-7.4-7.4c0-4.1,3.3-7.4,7.4-7.4c4.1,0,7.4,3.3,7.4,7.4
		C282.3,17.4,279,20.7,274.9,20.7z M274.9,8.7c-2.6,0-4.7,2.1-4.7,4.6c0,2.6,2.1,4.7,4.7,4.7c2.6,0,4.6-2.1,4.6-4.7
		C279.5,10.7,277.5,8.7,274.9,8.7z"/>
	<path class="st0" d="M290,45.6h-2.8v-8.3c0-6.8-5.6-12.4-12.4-12.4s-12.4,5.5-12.4,12.4v8.3h-2.8v-8.3c0-8.3,6.8-15.1,15.2-15.1
		c8.4,0,15.2,6.8,15.2,15.1V45.6z"/>
	<rect x="280.4" y="35.9" class="st0" width="2.8" height="9.6"/>
	<rect x="266.6" y="35.9" class="st0" width="2.8" height="9.6"/>
</g>
<g class="st1">
	<path class="st0" d="M383.3,20.7c-4.1,0-7.4-3.3-7.4-7.4c0-4.1,3.3-7.4,7.4-7.4c4.1,0,7.4,3.3,7.4,7.4
		C390.7,17.4,387.3,20.7,383.3,20.7z M383.3,8.7c-2.6,0-4.7,2.1-4.7,4.6c0,2.6,2.1,4.7,4.7,4.7c2.6,0,4.6-2.1,4.6-4.7
		C387.9,10.7,385.8,8.7,383.3,8.7z"/>
	<path class="st0" d="M398.4,45.6h-2.8v-8.3c0-6.8-5.6-12.4-12.4-12.4s-12.4,5.5-12.4,12.4v8.3h-2.8v-8.3c0-8.3,6.8-15.1,15.2-15.1
		c8.4,0,15.2,6.8,15.2,15.1V45.6z"/>
	<rect x="388.8" y="35.9" class="st0" width="2.8" height="9.6"/>
	<rect x="375" y="35.9" class="st0" width="2.8" height="9.6"/>
</g>
<g class="st1">
	<path class="st0" d="M419.4,20.7c-4.1,0-7.4-3.3-7.4-7.4c0-4.1,3.3-7.4,7.4-7.4c4.1,0,7.4,3.3,7.4,7.4
		C426.8,17.4,423.5,20.7,419.4,20.7z M419.4,8.7c-2.6,0-4.7,2.1-4.7,4.6c0,2.6,2.1,4.7,4.7,4.7c2.6,0,4.6-2.1,4.6-4.7
		C424,10.7,421.9,8.7,419.4,8.7z"/>
	<path class="st0" d="M434.5,45.6h-2.8v-8.3c0-6.8-5.6-12.4-12.4-12.4S407,30.4,407,37.2v8.3h-2.8v-8.3c0-8.3,6.8-15.1,15.2-15.1
		c8.4,0,15.2,6.8,15.2,15.1V45.6z"/>
	<rect x="424.9" y="35.9" class="st0" width="2.8" height="9.6"/>
	<rect x="411.1" y="35.9" class="st0" width="2.8" height="9.6"/>
</g>
<g class="st1">
	<path class="st0" d="M527.7,20.7c-4.1,0-7.4-3.3-7.4-7.4c0-4.1,3.3-7.4,7.4-7.4c4.1,0,7.4,3.3,7.4,7.4
		C535.1,17.4,531.8,20.7,527.7,20.7z M527.7,8.7c-2.6,0-4.7,2.1-4.7,4.6c0,2.6,2.1,4.7,4.7,4.7c2.6,0,4.6-2.1,4.6-4.7
		C532.4,10.7,530.3,8.7,527.7,8.7z"/>
	<path class="st0" d="M542.9,45.6h-2.8v-8.3c0-6.8-5.6-12.4-12.4-12.4c-6.8,0-12.4,5.5-12.4,12.4v8.3h-2.8v-8.3
		c0-8.3,6.8-15.1,15.2-15.1c8.4,0,15.2,6.8,15.2,15.1V45.6z"/>
	<rect x="533.2" y="35.9" class="st0" width="2.8" height="9.6"/>
	<rect x="519.5" y="35.9" class="st0" width="2.8" height="9.6"/>
</g>
<g>
	<path class="st0" d="M238.8,20.7c-4.1,0-7.4-3.3-7.4-7.4c0-4.1,3.3-7.4,7.4-7.4c4.1,0,7.4,3.3,7.4,7.4
		C246.2,17.4,242.9,20.7,238.8,20.7z M238.8,8.7c-2.6,0-4.7,2.1-4.7,4.6c0,2.6,2.1,4.7,4.7,4.7c2.6,0,4.6-2.1,4.6-4.7
		C243.4,10.7,241.3,8.7,238.8,8.7z"/>
	<path class="st0" d="M253.9,45.6h-2.8v-8.3c0-6.8-5.6-12.4-12.4-12.4s-12.4,5.5-12.4,12.4v8.3h-2.8v-8.3c0-8.3,6.8-15.1,15.2-15.1
		c8.4,0,15.2,6.8,15.2,15.1V45.6z"/>
	<rect x="244.3" y="35.9" class="st0" width="2.8" height="9.6"/>
	<rect x="230.5" y="35.9" class="st0" width="2.8" height="9.6"/>
</g>
<g class="st1">
	<path class="st0" d="M311,20.7c-4.1,0-7.4-3.3-7.4-7.4c0-4.1,3.3-7.4,7.4-7.4c4.1,0,7.4,3.3,7.4,7.4
		C318.4,17.4,315.1,20.7,311,20.7z M311,8.7c-2.6,0-4.7,2.1-4.7,4.6c0,2.6,2.1,4.7,4.7,4.7c2.6,0,4.6-2.1,4.6-4.7
		C315.7,10.7,313.6,8.7,311,8.7z"/>
	<path class="st0" d="M326.2,45.6h-2.8v-8.3c0-6.8-5.6-12.4-12.4-12.4s-12.4,5.5-12.4,12.4v8.3h-2.8v-8.3c0-8.3,6.8-15.1,15.2-15.1
		c8.4,0,15.2,6.8,15.2,15.1V45.6z"/>
	<rect x="316.5" y="35.9" class="st0" width="2.8" height="9.6"/>
	<rect x="302.7" y="35.9" class="st0" width="2.8" height="9.6"/>
</g>
<g class="st1">
	<path class="st0" d="M491.6,20.7c-4.1,0-7.4-3.3-7.4-7.4c0-4.1,3.3-7.4,7.4-7.4c4.1,0,7.4,3.3,7.4,7.4
		C499,17.4,495.7,20.7,491.6,20.7z M491.6,8.7c-2.6,0-4.7,2.1-4.7,4.6c0,2.6,2.1,4.7,4.7,4.7c2.6,0,4.6-2.1,4.6-4.7
		C496.3,10.7,494.2,8.7,491.6,8.7z"/>
	<path class="st0" d="M506.8,45.6H504v-8.3c0-6.8-5.6-12.4-12.4-12.4s-12.4,5.5-12.4,12.4v8.3h-2.8v-8.3c0-8.3,6.8-15.1,15.2-15.1
		c8.4,0,15.2,6.8,15.2,15.1V45.6z"/>
	<rect x="497.1" y="35.9" class="st0" width="2.8" height="9.6"/>
	<rect x="483.3" y="35.9" class="st0" width="2.8" height="9.6"/>
</g>
<g class="st1">
	<path class="st0" d="M563.9,20.7c-4.1,0-7.4-3.3-7.4-7.4c0-4.1,3.3-7.4,7.4-7.4c4.1,0,7.4,3.3,7.4,7.4
		C571.3,17.4,567.9,20.7,563.9,20.7z M563.9,8.7c-2.6,0-4.7,2.1-4.7,4.6c0,2.6,2.1,4.7,4.7,4.7c2.6,0,4.6-2.1,4.6-4.7
		C568.5,10.7,566.4,8.7,563.9,8.7z"/>
	<path class="st0" d="M579,45.6h-2.8v-8.3c0-6.8-5.6-12.4-12.4-12.4c-6.8,0-12.4,5.5-12.4,12.4v8.3h-2.8v-8.3
		c0-8.3,6.8-15.1,15.2-15.1c8.4,0,15.2,6.8,15.2,15.1V45.6z"/>
	<rect x="569.4" y="35.9" class="st0" width="2.8" height="9.6"/>
	<rect x="555.6" y="35.9" class="st0" width="2.8" height="9.6"/>
</g>
<g class="st1">
	<path class="st0" d="M455.5,20.7c-4.1,0-7.4-3.3-7.4-7.4c0-4.1,3.3-7.4,7.4-7.4c4.1,0,7.4,3.3,7.4,7.4
		C462.9,17.4,459.6,20.7,455.5,20.7z M455.5,8.7c-2.6,0-4.7,2.1-4.7,4.6c0,2.6,2.1,4.7,4.7,4.7c2.6,0,4.6-2.1,4.6-4.7
		C460.1,10.7,458.1,8.7,455.5,8.7z"/>
	<path class="st0" d="M470.7,45.6h-2.8v-8.3c0-6.8-5.6-12.4-12.4-12.4s-12.4,5.5-12.4,12.4v8.3h-2.8v-8.3c0-8.3,6.8-15.1,15.2-15.1
		c8.4,0,15.2,6.8,15.2,15.1V45.6z"/>
	<rect x="461" y="35.9" class="st0" width="2.8" height="9.6"/>
	<rect x="447.2" y="35.9" class="st0" width="2.8" height="9.6"/>
</g>
<g class="st1">
	<path class="st0" d="M347.1,20.7c-4.1,0-7.4-3.3-7.4-7.4c0-4.1,3.3-7.4,7.4-7.4c4.1,0,7.4,3.3,7.4,7.4
		C354.5,17.4,351.2,20.7,347.1,20.7z M347.1,8.7c-2.6,0-4.7,2.1-4.7,4.6c0,2.6,2.1,4.7,4.7,4.7c2.6,0,4.6-2.1,4.6-4.7
		C351.8,10.7,349.7,8.7,347.1,8.7z"/>
	<path class="st0" d="M362.3,45.6h-2.8v-8.3c0-6.8-5.6-12.4-12.4-12.4s-12.4,5.5-12.4,12.4v8.3H332v-8.3c0-8.3,6.8-15.1,15.2-15.1
		c8.4,0,15.2,6.8,15.2,15.1V45.6z"/>
	<rect x="352.6" y="35.9" class="st0" width="2.8" height="9.6"/>
	<rect x="338.9" y="35.9" class="st0" width="2.8" height="9.6"/>
</g>
<g>
	<path class="st0" d="M22.1,73.3c-4.1,0-7.4-3.3-7.4-7.4c0-4.1,3.3-7.4,7.4-7.4c4.1,0,7.4,3.3,7.4,7.4C29.5,70,26.1,73.3,22.1,73.3z
		 M22.1,61.3c-2.6,0-4.7,2.1-4.7,4.6c0,2.6,2.1,4.7,4.7,4.7c2.6,0,4.6-2.1,4.6-4.7C26.7,63.4,24.6,61.3,22.1,61.3z"/>
	<path class="st0" d="M37.2,98.2h-2.8v-8.3c0-6.8-5.6-12.4-12.4-12.4S9.6,83.1,9.6,89.9v8.3H6.9v-8.3c0-8.3,6.8-15.1,15.2-15.1
		c8.4,0,15.2,6.8,15.2,15.1V98.2z"/>
	<rect x="27.6" y="88.5" class="st0" width="2.8" height="9.6"/>
	<rect x="13.8" y="88.5" class="st0" width="2.8" height="9.6"/>
</g>
<g>
	<path class="st0" d="M58.2,73.3c-4.1,0-7.4-3.3-7.4-7.4c0-4.1,3.3-7.4,7.4-7.4c4.1,0,7.4,3.3,7.4,7.4C65.6,70,62.3,73.3,58.2,73.3z
		 M58.2,61.3c-2.6,0-4.7,2.1-4.7,4.6c0,2.6,2.1,4.7,4.7,4.7c2.6,0,4.6-2.1,4.6-4.7C62.8,63.4,60.7,61.3,58.2,61.3z"/>
	<path class="st0" d="M73.3,98.2h-2.8v-8.3c0-6.8-5.6-12.4-12.4-12.4c-6.8,0-12.4,5.5-12.4,12.4v8.3H43v-8.3
		c0-8.3,6.8-15.1,15.2-15.1c8.4,0,15.2,6.8,15.2,15.1V98.2z"/>
	<rect x="63.7" y="88.5" class="st0" width="2.8" height="9.6"/>
	<rect x="49.9" y="88.5" class="st0" width="2.8" height="9.6"/>
</g>
<g>
	<path class="st0" d="M94.3,73.3c-4.1,0-7.4-3.3-7.4-7.4c0-4.1,3.3-7.4,7.4-7.4c4.1,0,7.4,3.3,7.4,7.4C101.7,70,98.4,73.3,94.3,73.3
		z M94.3,61.3c-2.6,0-4.7,2.1-4.7,4.6c0,2.6,2.1,4.7,4.7,4.7c2.6,0,4.6-2.1,4.6-4.7C98.9,63.4,96.9,61.3,94.3,61.3z"/>
	<path class="st0" d="M109.4,98.2h-2.8v-8.3c0-6.8-5.6-12.4-12.4-12.4c-6.8,0-12.4,5.5-12.4,12.4v8.3h-2.8v-8.3
		c0-8.3,6.8-15.1,15.2-15.1c8.4,0,15.2,6.8,15.2,15.1V98.2z"/>
	<rect x="99.8" y="88.5" class="st0" width="2.8" height="9.6"/>
	<rect x="86" y="88.5" class="st0" width="2.8" height="9.6"/>
</g>
<g>
	<path class="st0" d="M130.4,73.3c-4.1,0-7.4-3.3-7.4-7.4c0-4.1,3.3-7.4,7.4-7.4c4.1,0,7.4,3.3,7.4,7.4
		C137.8,70,134.5,73.3,130.4,73.3z M130.4,61.3c-2.6,0-4.7,2.1-4.7,4.6c0,2.6,2.1,4.7,4.7,4.7c2.6,0,4.6-2.1,4.6-4.7
		C135.1,63.4,133,61.3,130.4,61.3z"/>
	<path class="st0" d="M145.6,98.2h-2.8v-8.3c0-6.8-5.6-12.4-12.4-12.4S118,83.1,118,89.9v8.3h-2.8v-8.3c0-8.3,6.8-15.1,15.2-15.1
		c8.4,0,15.2,6.8,15.2,15.1V98.2z"/>
	<rect x="135.9" y="88.5" class="st0" width="2.8" height="9.6"/>
	<rect x="122.1" y="88.5" class="st0" width="2.8" height="9.6"/>
</g>
<g>
	<path class="st0" d="M166.5,73.3c-4.1,0-7.4-3.3-7.4-7.4c0-4.1,3.3-7.4,7.4-7.4c4.1,0,7.4,3.3,7.4,7.4
		C173.9,70,170.6,73.3,166.5,73.3z M166.5,61.3c-2.6,0-4.7,2.1-4.7,4.6c0,2.6,2.1,4.7,4.7,4.7c2.6,0,4.6-2.1,4.6-4.7
		C171.2,63.4,169.1,61.3,166.5,61.3z"/>
	<path class="st0" d="M181.7,98.2h-2.8v-8.3c0-6.8-5.6-12.4-12.4-12.4c-6.8,0-12.4,5.5-12.4,12.4v8.3h-2.8v-8.3
		c0-8.3,6.8-15.1,15.2-15.1c8.4,0,15.2,6.8,15.2,15.1V98.2z"/>
	<rect x="172" y="88.5" class="st0" width="2.8" height="9.6"/>
	<rect x="158.3" y="88.5" class="st0" width="2.8" height="9.6"/>
</g>
<g>
	<path class="st0" d="M202.6,73.3c-4.1,0-7.4-3.3-7.4-7.4c0-4.1,3.3-7.4,7.4-7.4c4.1,0,7.4,3.3,7.4,7.4
		C210,70,206.7,73.3,202.6,73.3z M202.6,61.3c-2.6,0-4.7,2.1-4.7,4.6c0,2.6,2.1,4.7,4.7,4.7c2.6,0,4.6-2.1,4.6-4.7
		C207.3,63.4,205.2,61.3,202.6,61.3z"/>
	<path class="st0" d="M217.8,98.2H215v-8.3c0-6.8-5.6-12.4-12.4-12.4c-6.8,0-12.4,5.5-12.4,12.4v8.3h-2.8v-8.3
		c0-8.3,6.8-15.1,15.2-15.1c8.4,0,15.2,6.8,15.2,15.1V98.2z"/>
	<rect x="208.2" y="88.5" class="st0" width="2.8" height="9.6"/>
	<rect x="194.4" y="88.5" class="st0" width="2.8" height="9.6"/>
</g>
<g>
	<path class="st0" d="M274.9,73.3c-4.1,0-7.4-3.3-7.4-7.4c0-4.1,3.3-7.4,7.4-7.4c4.1,0,7.4,3.3,7.4,7.4
		C282.3,70,279,73.3,274.9,73.3z M274.9,61.3c-2.6,0-4.7,2.1-4.7,4.6c0,2.6,2.1,4.7,4.7,4.7c2.6,0,4.6-2.1,4.6-4.7
		C279.5,63.4,277.4,61.3,274.9,61.3z"/>
	<path class="st0" d="M290,98.2h-2.8v-8.3c0-6.8-5.6-12.4-12.4-12.4c-6.8,0-12.4,5.5-12.4,12.4v8.3h-2.8v-8.3
		c0-8.3,6.8-15.1,15.2-15.1c8.4,0,15.2,6.8,15.2,15.1V98.2z"/>
	<rect x="280.4" y="88.5" class="st0" width="2.8" height="9.6"/>
	<rect x="266.6" y="88.5" class="st0" width="2.8" height="9.6"/>
</g>
<g class="st1">
	<path class="st0" d="M383.2,73.3c-4.1,0-7.4-3.3-7.4-7.4c0-4.1,3.3-7.4,7.4-7.4c4.1,0,7.4,3.3,7.4,7.4
		C390.6,70,387.3,73.3,383.2,73.3z M383.2,61.3c-2.6,0-4.7,2.1-4.7,4.6c0,2.6,2.1,4.7,4.7,4.7c2.6,0,4.6-2.1,4.6-4.7
		C387.9,63.4,385.8,61.3,383.2,61.3z"/>
	<path class="st0" d="M398.4,98.2h-2.8v-8.3c0-6.8-5.6-12.4-12.4-12.4c-6.8,0-12.4,5.5-12.4,12.4v8.3h-2.8v-8.3
		c0-8.3,6.8-15.1,15.2-15.1c8.4,0,15.2,6.8,15.2,15.1V98.2z"/>
	<rect x="388.7" y="88.5" class="st0" width="2.8" height="9.6"/>
	<rect x="375" y="88.5" class="st0" width="2.8" height="9.6"/>
</g>
<g class="st1">
	<path class="st0" d="M419.4,73.3c-4.1,0-7.4-3.3-7.4-7.4c0-4.1,3.3-7.4,7.4-7.4c4.1,0,7.4,3.3,7.4,7.4
		C426.8,70,423.4,73.3,419.4,73.3z M419.4,61.3c-2.6,0-4.7,2.1-4.7,4.6c0,2.6,2.1,4.7,4.7,4.7c2.6,0,4.6-2.1,4.6-4.7
		C424,63.4,421.9,61.3,419.4,61.3z"/>
	<path class="st0" d="M434.5,98.2h-2.8v-8.3c0-6.8-5.6-12.4-12.4-12.4S407,83.1,407,89.9v8.3h-2.8v-8.3c0-8.3,6.8-15.1,15.2-15.1
		c8.4,0,15.2,6.8,15.2,15.1V98.2z"/>
	<rect x="424.9" y="88.5" class="st0" width="2.8" height="9.6"/>
	<rect x="411.1" y="88.5" class="st0" width="2.8" height="9.6"/>
</g>
<g class="st1">
	<path class="st0" d="M527.7,73.3c-4.1,0-7.4-3.3-7.4-7.4c0-4.1,3.3-7.4,7.4-7.4c4.1,0,7.4,3.3,7.4,7.4
		C535.1,70,531.8,73.3,527.7,73.3z M527.7,61.3c-2.6,0-4.7,2.1-4.7,4.6c0,2.6,2.1,4.7,4.7,4.7c2.6,0,4.6-2.1,4.6-4.7
		C532.4,63.4,530.3,61.3,527.7,61.3z"/>
	<path class="st0" d="M542.9,98.2h-2.8v-8.3c0-6.8-5.6-12.4-12.4-12.4s-12.4,5.5-12.4,12.4v8.3h-2.8v-8.3c0-8.3,6.8-15.1,15.2-15.1
		c8.4,0,15.2,6.8,15.2,15.1V98.2z"/>
	<rect x="533.2" y="88.5" class="st0" width="2.8" height="9.6"/>
	<rect x="519.4" y="88.5" class="st0" width="2.8" height="9.6"/>
</g>
<g>
	<path class="st0" d="M238.8,73.3c-4.1,0-7.4-3.3-7.4-7.4c0-4.1,3.3-7.4,7.4-7.4c4.1,0,7.4,3.3,7.4,7.4
		C246.2,70,242.8,73.3,238.8,73.3z M238.8,61.3c-2.6,0-4.7,2.1-4.7,4.6c0,2.6,2.1,4.7,4.7,4.7c2.6,0,4.6-2.1,4.6-4.7
		C243.4,63.4,241.3,61.3,238.8,61.3z"/>
	<path class="st0" d="M253.9,98.2h-2.8v-8.3c0-6.8-5.6-12.4-12.4-12.4s-12.4,5.5-12.4,12.4v8.3h-2.8v-8.3c0-8.3,6.8-15.1,15.2-15.1
		c8.4,0,15.2,6.8,15.2,15.1V98.2z"/>
	<rect x="244.3" y="88.5" class="st0" width="2.8" height="9.6"/>
	<rect x="230.5" y="88.5" class="st0" width="2.8" height="9.6"/>
</g>
<g class="st1">
	<path class="st0" d="M311,73.3c-4.1,0-7.4-3.3-7.4-7.4c0-4.1,3.3-7.4,7.4-7.4c4.1,0,7.4,3.3,7.4,7.4C318.4,70,315.1,73.3,311,73.3z
		 M311,61.3c-2.6,0-4.7,2.1-4.7,4.6c0,2.6,2.1,4.7,4.7,4.7c2.6,0,4.6-2.1,4.6-4.7C315.6,63.4,313.6,61.3,311,61.3z"/>
	<path class="st0" d="M326.2,98.2h-2.8v-8.3c0-6.8-5.6-12.4-12.4-12.4s-12.4,5.5-12.4,12.4v8.3h-2.8v-8.3c0-8.3,6.8-15.1,15.2-15.1
		c8.4,0,15.2,6.8,15.2,15.1V98.2z"/>
	<rect x="316.5" y="88.5" class="st0" width="2.8" height="9.6"/>
	<rect x="302.7" y="88.5" class="st0" width="2.8" height="9.6"/>
</g>
<g class="st1">
	<path class="st0" d="M491.6,73.3c-4.1,0-7.4-3.3-7.4-7.4c0-4.1,3.3-7.4,7.4-7.4c4.1,0,7.4,3.3,7.4,7.4
		C499,70,495.7,73.3,491.6,73.3z M491.6,61.3c-2.6,0-4.7,2.1-4.7,4.6c0,2.6,2.1,4.7,4.7,4.7c2.6,0,4.6-2.1,4.6-4.7
		C496.2,63.4,494.2,61.3,491.6,61.3z"/>
	<path class="st0" d="M506.7,98.2H504v-8.3c0-6.8-5.6-12.4-12.4-12.4s-12.4,5.5-12.4,12.4v8.3h-2.8v-8.3c0-8.3,6.8-15.1,15.2-15.1
		c8.4,0,15.2,6.8,15.2,15.1V98.2z"/>
	<rect x="497.1" y="88.5" class="st0" width="2.8" height="9.6"/>
	<rect x="483.3" y="88.5" class="st0" width="2.8" height="9.6"/>
</g>
<g class="st1">
	<path class="st0" d="M563.8,73.3c-4.1,0-7.4-3.3-7.4-7.4c0-4.1,3.3-7.4,7.4-7.4c4.1,0,7.4,3.3,7.4,7.4
		C571.2,70,567.9,73.3,563.8,73.3z M563.8,61.3c-2.6,0-4.7,2.1-4.7,4.6c0,2.6,2.1,4.7,4.7,4.7c2.6,0,4.6-2.1,4.6-4.7
		C568.5,63.4,566.4,61.3,563.8,61.3z"/>
	<path class="st0" d="M579,98.2h-2.8v-8.3c0-6.8-5.6-12.4-12.4-12.4c-6.8,0-12.4,5.5-12.4,12.4v8.3h-2.8v-8.3
		c0-8.3,6.8-15.1,15.2-15.1c8.4,0,15.2,6.8,15.2,15.1V98.2z"/>
	<rect x="569.3" y="88.5" class="st0" width="2.8" height="9.6"/>
	<rect x="555.6" y="88.5" class="st0" width="2.8" height="9.6"/>
</g>
<g class="st1">
	<path class="st0" d="M455.5,73.3c-4.1,0-7.4-3.3-7.4-7.4c0-4.1,3.3-7.4,7.4-7.4c4.1,0,7.4,3.3,7.4,7.4
		C462.9,70,459.6,73.3,455.5,73.3z M455.5,61.3c-2.6,0-4.7,2.1-4.7,4.6c0,2.6,2.1,4.7,4.7,4.7c2.6,0,4.6-2.1,4.6-4.7
		C460.1,63.4,458,61.3,455.5,61.3z"/>
	<path class="st0" d="M470.6,98.2h-2.8v-8.3c0-6.8-5.6-12.4-12.4-12.4s-12.4,5.5-12.4,12.4v8.3h-2.8v-8.3c0-8.3,6.8-15.1,15.2-15.1
		c8.4,0,15.2,6.8,15.2,15.1V98.2z"/>
	<rect x="461" y="88.5" class="st0" width="2.8" height="9.6"/>
	<rect x="447.2" y="88.5" class="st0" width="2.8" height="9.6"/>
</g>
<g class="st1">
	<path class="st0" d="M347.1,73.3c-4.1,0-7.4-3.3-7.4-7.4c0-4.1,3.3-7.4,7.4-7.4c4.1,0,7.4,3.3,7.4,7.4
		C354.5,70,351.2,73.3,347.1,73.3z M347.1,61.3c-2.6,0-4.7,2.1-4.7,4.6c0,2.6,2.1,4.7,4.7,4.7c2.6,0,4.6-2.1,4.6-4.7
		C351.8,63.4,349.7,61.3,347.1,61.3z"/>
	<path class="st0" d="M362.3,98.2h-2.8v-8.3c0-6.8-5.6-12.4-12.4-12.4s-12.4,5.5-12.4,12.4v8.3H332v-8.3c0-8.3,6.8-15.1,15.2-15.1
		c8.4,0,15.2,6.8,15.2,15.1V98.2z"/>
	<rect x="352.6" y="88.5" class="st0" width="2.8" height="9.6"/>
	<rect x="338.9" y="88.5" class="st0" width="2.8" height="9.6"/>
</g>
</svg>
