<?xml version="1.0" encoding="utf-8"?>
<!-- Generator: Adobe Illustrator 20.0.0, SVG Export Plug-In . SVG Version: 6.00 Build 0)  -->
<svg version="1.1" id="Layer_1" xmlns="http://www.w3.org/2000/svg" xmlns:xlink="http://www.w3.org/1999/xlink" x="0px" y="0px"
	 viewBox="0 0 282.5 201.2" style="enable-background:new 0 0 282.5 201.2;" xml:space="preserve">
<style type="text/css">
	.st0{fill:#0096D6;}
	.st1{opacity:0.5;}
</style>
<g>
	<path class="st0" d="M17.6,16.9c-3.8,0-6.9-3.1-6.9-6.9c0-3.8,3.1-6.9,6.9-6.9c3.8,0,6.9,3.1,6.9,6.9
		C24.5,13.8,21.4,16.9,17.6,16.9z M17.6,5.7c-2.4,0-4.3,1.9-4.3,4.3c0,2.4,1.9,4.3,4.3,4.3c2.4,0,4.3-1.9,4.3-4.3
		C21.9,7.6,20,5.7,17.6,5.7z"/>
	<path class="st0" d="M31.7,40.1h-2.6v-7.8c0-6.4-5.2-11.5-11.6-11.5S6,26,6,32.4v7.8H3.4v-7.8c0-7.8,6.3-14.1,14.1-14.1
		c7.8,0,14.1,6.3,14.1,14.1V40.1z"/>
	<rect x="22.7" y="31.1" class="st0" width="2.6" height="9"/>
	<rect x="9.9" y="31.1" class="st0" width="2.6" height="9"/>
</g>
<g>
	<path class="st0" d="M52.9,16.9c-3.8,0-6.9-3.1-6.9-6.9c0-3.8,3.1-6.9,6.9-6.9c3.8,0,6.9,3.1,6.9,6.9
		C59.8,13.8,56.7,16.9,52.9,16.9z M52.9,5.7c-2.4,0-4.3,1.9-4.3,4.3c0,2.4,1.9,4.3,4.3,4.3c2.4,0,4.3-1.9,4.3-4.3
		C57.2,7.6,55.3,5.7,52.9,5.7z"/>
	<path class="st0" d="M67,40.1h-2.6v-7.8c0-6.4-5.2-11.5-11.6-11.5S41.3,26,41.3,32.4v7.8h-2.6v-7.8c0-7.8,6.3-14.1,14.1-14.1
		c7.8,0,14.1,6.3,14.1,14.1V40.1z"/>
	<rect x="58" y="31.1" class="st0" width="2.6" height="9"/>
	<rect x="45.2" y="31.1" class="st0" width="2.6" height="9"/>
</g>
<g>
	<path class="st0" d="M88.2,16.9c-3.8,0-6.9-3.1-6.9-6.9c0-3.8,3.1-6.9,6.9-6.9c3.8,0,6.9,3.1,6.9,6.9C95.1,13.8,92,16.9,88.2,16.9z
		 M88.2,5.7c-2.4,0-4.3,1.9-4.3,4.3c0,2.4,1.9,4.3,4.3,4.3c2.4,0,4.3-1.9,4.3-4.3C92.5,7.6,90.6,5.7,88.2,5.7z"/>
	<path class="st0" d="M102.3,40.1h-2.6v-7.8c0-6.4-5.2-11.5-11.6-11.5c-6.4,0-11.6,5.2-11.6,11.5v7.8h-2.6v-7.8
		c0-7.8,6.3-14.1,14.1-14.1c7.8,0,14.1,6.3,14.1,14.1V40.1z"/>
	<rect x="93.3" y="31.1" class="st0" width="2.6" height="9"/>
	<rect x="80.5" y="31.1" class="st0" width="2.6" height="9"/>
</g>
<g>
	<path class="st0" d="M123.5,16.9c-3.8,0-6.9-3.1-6.9-6.9c0-3.8,3.1-6.9,6.9-6.9c3.8,0,6.9,3.1,6.9,6.9
		C130.4,13.8,127.3,16.9,123.5,16.9z M123.5,5.7c-2.4,0-4.3,1.9-4.3,4.3c0,2.4,1.9,4.3,4.3,4.3c2.4,0,4.3-1.9,4.3-4.3
		C127.8,7.6,125.9,5.7,123.5,5.7z"/>
	<path class="st0" d="M137.6,40.1h-2.6v-7.8c0-6.4-5.2-11.5-11.6-11.5s-11.6,5.2-11.6,11.5v7.8h-2.6v-7.8c0-7.8,6.3-14.1,14.1-14.1
		c7.8,0,14.1,6.3,14.1,14.1V40.1z"/>
	<rect x="128.6" y="31.1" class="st0" width="2.6" height="9"/>
	<rect x="115.8" y="31.1" class="st0" width="2.6" height="9"/>
</g>
<g class="st1">
	<path class="st0" d="M158.8,16.9c-3.8,0-6.9-3.1-6.9-6.9c0-3.8,3.1-6.9,6.9-6.9c3.8,0,6.9,3.1,6.9,6.9
		C165.7,13.8,162.6,16.9,158.8,16.9z M158.8,5.7c-2.4,0-4.3,1.9-4.3,4.3c0,2.4,1.9,4.3,4.3,4.3c2.4,0,4.3-1.9,4.3-4.3
		C163.2,7.6,161.2,5.7,158.8,5.7z"/>
	<path class="st0" d="M173,40.1h-2.6v-7.8c0-6.4-5.2-11.5-11.6-11.5s-11.6,5.2-11.6,11.5v7.8h-2.6v-7.8c0-7.8,6.3-14.1,14.1-14.1
		c7.8,0,14.1,6.3,14.1,14.1V40.1z"/>
	<rect x="164" y="31.1" class="st0" width="2.6" height="9"/>
	<rect x="151.1" y="31.1" class="st0" width="2.6" height="9"/>
</g>
<g class="st1">
	<path class="st0" d="M194.1,16.9c-3.8,0-6.9-3.1-6.9-6.9c0-3.8,3.1-6.9,6.9-6.9c3.8,0,6.9,3.1,6.9,6.9
		C201,13.8,197.9,16.9,194.1,16.9z M194.1,5.7c-2.4,0-4.3,1.9-4.3,4.3c0,2.4,1.9,4.3,4.3,4.3c2.4,0,4.3-1.9,4.3-4.3
		C198.5,7.6,196.5,5.7,194.1,5.7z"/>
	<path class="st0" d="M208.3,40.1h-2.6v-7.8c0-6.4-5.2-11.5-11.6-11.5s-11.6,5.2-11.6,11.5v7.8H180v-7.8c0-7.8,6.3-14.1,14.1-14.1
		c7.8,0,14.1,6.3,14.1,14.1V40.1z"/>
	<rect x="199.3" y="31.1" class="st0" width="2.6" height="9"/>
	<rect x="186.4" y="31.1" class="st0" width="2.6" height="9"/>
</g>
<g class="st1">
	<path class="st0" d="M229.4,16.9c-3.8,0-6.9-3.1-6.9-6.9c0-3.8,3.1-6.9,6.9-6.9c3.8,0,6.9,3.1,6.9,6.9
		C236.4,13.8,233.3,16.9,229.4,16.9z M229.4,5.7c-2.4,0-4.3,1.9-4.3,4.3c0,2.4,1.9,4.3,4.3,4.3c2.4,0,4.3-1.9,4.3-4.3
		C233.8,7.6,231.8,5.7,229.4,5.7z"/>
	<path class="st0" d="M243.6,40.1H241v-7.8c0-6.4-5.2-11.5-11.6-11.5c-6.4,0-11.6,5.2-11.6,11.5v7.8h-2.6v-7.8
		c0-7.8,6.3-14.1,14.1-14.1c7.8,0,14.1,6.3,14.1,14.1V40.1z"/>
	<rect x="234.6" y="31.1" class="st0" width="2.6" height="9"/>
	<rect x="221.7" y="31.1" class="st0" width="2.6" height="9"/>
</g>
<g class="st1">
	<path class="st0" d="M264.8,16.9c-3.8,0-6.9-3.1-6.9-6.9c0-3.8,3.1-6.9,6.9-6.9c3.8,0,6.9,3.1,6.9,6.9
		C271.7,13.8,268.6,16.9,264.8,16.9z M264.8,5.7c-2.4,0-4.3,1.9-4.3,4.3c0,2.4,1.9,4.3,4.3,4.3c2.4,0,4.3-1.9,4.3-4.3
		C269.1,7.6,267.2,5.7,264.8,5.7z"/>
	<path class="st0" d="M278.9,40.1h-2.6v-7.8c0-6.4-5.2-11.5-11.6-11.5s-11.6,5.2-11.6,11.5v7.8h-2.6v-7.8c0-7.8,6.3-14.1,14.1-14.1
		c7.8,0,14.1,6.3,14.1,14.1V40.1z"/>
	<rect x="269.9" y="31.1" class="st0" width="2.6" height="9"/>
	<rect x="257" y="31.1" class="st0" width="2.6" height="9"/>
</g>
<g>
	<path class="st0" d="M17.6,69.2c-3.8,0-6.9-3.1-6.9-6.9c0-3.8,3.1-6.9,6.9-6.9c3.8,0,6.9,3.1,6.9,6.9
		C24.5,66.1,21.4,69.2,17.6,69.2z M17.6,58c-2.4,0-4.3,1.9-4.3,4.3c0,2.4,1.9,4.3,4.3,4.3c2.4,0,4.3-1.9,4.3-4.3
		C21.9,59.9,20,58,17.6,58z"/>
	<path class="st0" d="M31.7,92.4h-2.6v-7.8c0-6.4-5.2-11.5-11.6-11.5S6,78.3,6,84.7v7.8H3.4v-7.8c0-7.8,6.3-14.1,14.1-14.1
		c7.8,0,14.1,6.3,14.1,14.1V92.4z"/>
	<rect x="22.7" y="83.4" class="st0" width="2.6" height="9"/>
	<rect x="9.9" y="83.4" class="st0" width="2.6" height="9"/>
</g>
<g>
	<path class="st0" d="M52.9,69.2c-3.8,0-6.9-3.1-6.9-6.9c0-3.8,3.1-6.9,6.9-6.9c3.8,0,6.9,3.1,6.9,6.9
		C59.8,66.1,56.7,69.2,52.9,69.2z M52.9,58c-2.4,0-4.3,1.9-4.3,4.3c0,2.4,1.9,4.3,4.3,4.3c2.4,0,4.3-1.9,4.3-4.3
		C57.2,59.9,55.3,58,52.9,58z"/>
	<path class="st0" d="M67,92.4h-2.6v-7.8c0-6.4-5.2-11.5-11.6-11.5s-11.6,5.2-11.6,11.5v7.8h-2.6v-7.8c0-7.8,6.3-14.1,14.1-14.1
		c7.8,0,14.1,6.3,14.1,14.1V92.4z"/>
	<rect x="58" y="83.4" class="st0" width="2.6" height="9"/>
	<rect x="45.2" y="83.4" class="st0" width="2.6" height="9"/>
</g>
<g>
	<path class="st0" d="M88.2,69.2c-3.8,0-6.9-3.1-6.9-6.9c0-3.8,3.1-6.9,6.9-6.9c3.8,0,6.9,3.1,6.9,6.9C95.1,66.1,92,69.2,88.2,69.2z
		 M88.2,58c-2.4,0-4.3,1.9-4.3,4.3c0,2.4,1.9,4.3,4.3,4.3c2.4,0,4.3-1.9,4.3-4.3C92.5,59.9,90.6,58,88.2,58z"/>
	<path class="st0" d="M102.3,92.4h-2.6v-7.8c0-6.4-5.2-11.5-11.6-11.5c-6.4,0-11.6,5.2-11.6,11.5v7.8h-2.6v-7.8
		c0-7.8,6.3-14.1,14.1-14.1c7.8,0,14.1,6.3,14.1,14.1V92.4z"/>
	<rect x="93.3" y="83.4" class="st0" width="2.6" height="9"/>
	<rect x="80.5" y="83.4" class="st0" width="2.6" height="9"/>
</g>
<g>
	<path class="st0" d="M123.5,69.2c-3.8,0-6.9-3.1-6.9-6.9c0-3.8,3.1-6.9,6.9-6.9c3.8,0,6.9,3.1,6.9,6.9
		C130.4,66.1,127.3,69.2,123.5,69.2z M123.5,58c-2.4,0-4.3,1.9-4.3,4.3c0,2.4,1.9,4.3,4.3,4.3c2.4,0,4.3-1.9,4.3-4.3
		C127.8,59.9,125.9,58,123.5,58z"/>
	<path class="st0" d="M137.6,92.4h-2.6v-7.8c0-6.4-5.2-11.5-11.6-11.5s-11.6,5.2-11.6,11.5v7.8h-2.6v-7.8c0-7.8,6.3-14.1,14.1-14.1
		c7.8,0,14.1,6.3,14.1,14.1V92.4z"/>
	<rect x="128.6" y="83.4" class="st0" width="2.6" height="9"/>
	<rect x="115.8" y="83.4" class="st0" width="2.6" height="9"/>
</g>
<g class="st1">
	<path class="st0" d="M158.8,69.2c-3.8,0-6.9-3.1-6.9-6.9c0-3.8,3.1-6.9,6.9-6.9c3.8,0,6.9,3.1,6.9,6.9
		C165.7,66.1,162.6,69.2,158.8,69.2z M158.8,58c-2.4,0-4.3,1.9-4.3,4.3c0,2.4,1.9,4.3,4.3,4.3c2.4,0,4.3-1.9,4.3-4.3
		C163.2,59.9,161.2,58,158.8,58z"/>
	<path class="st0" d="M173,92.4h-2.6v-7.8c0-6.4-5.2-11.5-11.6-11.5s-11.6,5.2-11.6,11.5v7.8h-2.6v-7.8c0-7.8,6.3-14.1,14.1-14.1
		c7.8,0,14.1,6.3,14.1,14.1V92.4z"/>
	<rect x="164" y="83.4" class="st0" width="2.6" height="9"/>
	<rect x="151.1" y="83.4" class="st0" width="2.6" height="9"/>
</g>
<g class="st1">
	<path class="st0" d="M194.1,69.2c-3.8,0-6.9-3.1-6.9-6.9c0-3.8,3.1-6.9,6.9-6.9c3.8,0,6.9,3.1,6.9,6.9
		C201,66.1,197.9,69.2,194.1,69.2z M194.1,58c-2.4,0-4.3,1.9-4.3,4.3c0,2.4,1.9,4.3,4.3,4.3c2.4,0,4.3-1.9,4.3-4.3
		C198.5,59.9,196.5,58,194.1,58z"/>
	<path class="st0" d="M208.3,92.4h-2.6v-7.8c0-6.4-5.2-11.5-11.6-11.5s-11.6,5.2-11.6,11.5v7.8H180v-7.8c0-7.8,6.3-14.1,14.1-14.1
		c7.8,0,14.1,6.3,14.1,14.1V92.4z"/>
	<rect x="199.3" y="83.4" class="st0" width="2.6" height="9"/>
	<rect x="186.4" y="83.4" class="st0" width="2.6" height="9"/>
</g>
<g class="st1">
	<path class="st0" d="M229.4,69.2c-3.8,0-6.9-3.1-6.9-6.9c0-3.8,3.1-6.9,6.9-6.9c3.8,0,6.9,3.1,6.9,6.9
		C236.4,66.1,233.3,69.2,229.4,69.2z M229.4,58c-2.4,0-4.3,1.9-4.3,4.3c0,2.4,1.9,4.3,4.3,4.3c2.4,0,4.3-1.9,4.3-4.3
		C233.8,59.9,231.8,58,229.4,58z"/>
	<path class="st0" d="M243.6,92.4H241v-7.8c0-6.4-5.2-11.5-11.6-11.5c-6.4,0-11.6,5.2-11.6,11.5v7.8h-2.6v-7.8
		c0-7.8,6.3-14.1,14.1-14.1c7.8,0,14.1,6.3,14.1,14.1V92.4z"/>
	<rect x="234.6" y="83.4" class="st0" width="2.6" height="9"/>
	<rect x="221.7" y="83.4" class="st0" width="2.6" height="9"/>
</g>
<g class="st1">
	<path class="st0" d="M264.8,69.2c-3.8,0-6.9-3.1-6.9-6.9c0-3.8,3.1-6.9,6.9-6.9c3.8,0,6.9,3.1,6.9,6.9
		C271.7,66.1,268.6,69.2,264.8,69.2z M264.8,58c-2.4,0-4.3,1.9-4.3,4.3c0,2.4,1.9,4.3,4.3,4.3c2.4,0,4.3-1.9,4.3-4.3
		C269.1,59.9,267.2,58,264.8,58z"/>
	<path class="st0" d="M278.9,92.4h-2.6v-7.8c0-6.4-5.2-11.5-11.6-11.5s-11.6,5.2-11.6,11.5v7.8h-2.6v-7.8c0-7.8,6.3-14.1,14.1-14.1
		c7.8,0,14.1,6.3,14.1,14.1V92.4z"/>
	<rect x="269.9" y="83.4" class="st0" width="2.6" height="9"/>
	<rect x="257" y="83.4" class="st0" width="2.6" height="9"/>
</g>
<g>
	<path class="st0" d="M17.6,121.5c-3.8,0-6.9-3.1-6.9-6.9c0-3.8,3.1-6.9,6.9-6.9c3.8,0,6.9,3.1,6.9,6.9
		C24.5,118.4,21.4,121.5,17.6,121.5z M17.6,110.3c-2.4,0-4.3,1.9-4.3,4.3c0,2.4,1.9,4.3,4.3,4.3c2.4,0,4.3-1.9,4.3-4.3
		C21.9,112.2,20,110.3,17.6,110.3z"/>
	<path class="st0" d="M31.7,144.7h-2.6V137c0-6.4-5.2-11.5-11.6-11.5S6,130.6,6,137v7.8H3.4V137c0-7.8,6.3-14.1,14.1-14.1
		c7.8,0,14.1,6.3,14.1,14.1V144.7z"/>
	<rect x="22.7" y="135.7" class="st0" width="2.6" height="9"/>
	<rect x="9.9" y="135.7" class="st0" width="2.6" height="9"/>
</g>
<g>
	<path class="st0" d="M52.9,121.5c-3.8,0-6.9-3.1-6.9-6.9c0-3.8,3.1-6.9,6.9-6.9c3.8,0,6.9,3.1,6.9,6.9
		C59.8,118.4,56.7,121.5,52.9,121.5z M52.9,110.3c-2.4,0-4.3,1.9-4.3,4.3c0,2.4,1.9,4.3,4.3,4.3c2.4,0,4.3-1.9,4.3-4.3
		C57.2,112.2,55.3,110.3,52.9,110.3z"/>
	<path class="st0" d="M67,144.7h-2.6V137c0-6.4-5.2-11.5-11.6-11.5s-11.6,5.2-11.6,11.5v7.8h-2.6V137c0-7.8,6.3-14.1,14.1-14.1
		c7.8,0,14.1,6.3,14.1,14.1V144.7z"/>
	<rect x="58" y="135.7" class="st0" width="2.6" height="9"/>
	<rect x="45.2" y="135.7" class="st0" width="2.6" height="9"/>
</g>
<g>
	<path class="st0" d="M88.2,121.5c-3.8,0-6.9-3.1-6.9-6.9c0-3.8,3.1-6.9,6.9-6.9c3.8,0,6.9,3.1,6.9,6.9
		C95.1,118.4,92,121.5,88.2,121.5z M88.2,110.3c-2.4,0-4.3,1.9-4.3,4.3c0,2.4,1.9,4.3,4.3,4.3c2.4,0,4.3-1.9,4.3-4.3
		C92.5,112.2,90.6,110.3,88.2,110.3z"/>
	<path class="st0" d="M102.3,144.7h-2.6V137c0-6.4-5.2-11.5-11.6-11.5c-6.4,0-11.6,5.2-11.6,11.5v7.8h-2.6V137
		c0-7.8,6.3-14.1,14.1-14.1c7.8,0,14.1,6.3,14.1,14.1V144.7z"/>
	<rect x="93.3" y="135.7" class="st0" width="2.6" height="9"/>
	<rect x="80.5" y="135.7" class="st0" width="2.6" height="9"/>
</g>
<g>
	<path class="st0" d="M123.5,121.5c-3.8,0-6.9-3.1-6.9-6.9c0-3.8,3.1-6.9,6.9-6.9c3.8,0,6.9,3.1,6.9,6.9
		C130.4,118.4,127.3,121.5,123.5,121.5z M123.5,110.3c-2.4,0-4.3,1.9-4.3,4.3c0,2.4,1.9,4.3,4.3,4.3c2.4,0,4.3-1.9,4.3-4.3
		C127.8,112.2,125.9,110.3,123.5,110.3z"/>
	<path class="st0" d="M137.6,144.7h-2.6V137c0-6.4-5.2-11.5-11.6-11.5s-11.6,5.2-11.6,11.5v7.8h-2.6V137c0-7.8,6.3-14.1,14.1-14.1
		c7.8,0,14.1,6.3,14.1,14.1V144.7z"/>
	<rect x="128.6" y="135.7" class="st0" width="2.6" height="9"/>
	<rect x="115.8" y="135.7" class="st0" width="2.6" height="9"/>
</g>
<g class="st1">
	<path class="st0" d="M158.8,121.5c-3.8,0-6.9-3.1-6.9-6.9c0-3.8,3.1-6.9,6.9-6.9c3.8,0,6.9,3.1,6.9,6.9
		C165.7,118.4,162.6,121.5,158.8,121.5z M158.8,110.3c-2.4,0-4.3,1.9-4.3,4.3c0,2.4,1.9,4.3,4.3,4.3c2.4,0,4.3-1.9,4.3-4.3
		C163.2,112.2,161.2,110.3,158.8,110.3z"/>
	<path class="st0" d="M173,144.7h-2.6V137c0-6.4-5.2-11.5-11.6-11.5s-11.6,5.2-11.6,11.5v7.8h-2.6V137c0-7.8,6.3-14.1,14.1-14.1
		c7.8,0,14.1,6.3,14.1,14.1V144.7z"/>
	<rect x="164" y="135.7" class="st0" width="2.6" height="9"/>
	<rect x="151.1" y="135.7" class="st0" width="2.6" height="9"/>
</g>
<g class="st1">
	<path class="st0" d="M194.1,121.5c-3.8,0-6.9-3.1-6.9-6.9c0-3.8,3.1-6.9,6.9-6.9c3.8,0,6.9,3.1,6.9,6.9
		C201,118.4,197.9,121.5,194.1,121.5z M194.1,110.3c-2.4,0-4.3,1.9-4.3,4.3c0,2.4,1.9,4.3,4.3,4.3c2.4,0,4.3-1.9,4.3-4.3
		C198.5,112.2,196.5,110.3,194.1,110.3z"/>
	<path class="st0" d="M208.3,144.7h-2.6V137c0-6.4-5.2-11.5-11.6-11.5s-11.6,5.2-11.6,11.5v7.8H180V137c0-7.8,6.3-14.1,14.1-14.1
		c7.8,0,14.1,6.3,14.1,14.1V144.7z"/>
	<rect x="199.3" y="135.7" class="st0" width="2.6" height="9"/>
	<rect x="186.4" y="135.7" class="st0" width="2.6" height="9"/>
</g>
<g class="st1">
	<path class="st0" d="M229.4,121.5c-3.8,0-6.9-3.1-6.9-6.9c0-3.8,3.1-6.9,6.9-6.9c3.8,0,6.9,3.1,6.9,6.9
		C236.4,118.4,233.3,121.5,229.4,121.5z M229.4,110.3c-2.4,0-4.3,1.9-4.3,4.3c0,2.4,1.9,4.3,4.3,4.3c2.4,0,4.3-1.9,4.3-4.3
		C233.8,112.2,231.8,110.3,229.4,110.3z"/>
	<path class="st0" d="M243.6,144.7H241V137c0-6.4-5.2-11.5-11.6-11.5c-6.4,0-11.6,5.2-11.6,11.5v7.8h-2.6V137
		c0-7.8,6.3-14.1,14.1-14.1c7.8,0,14.1,6.3,14.1,14.1V144.7z"/>
	<rect x="234.6" y="135.7" class="st0" width="2.6" height="9"/>
	<rect x="221.7" y="135.7" class="st0" width="2.6" height="9"/>
</g>
<g class="st1">
	<path class="st0" d="M264.8,121.5c-3.8,0-6.9-3.1-6.9-6.9c0-3.8,3.1-6.9,6.9-6.9c3.8,0,6.9,3.1,6.9,6.9
		C271.7,118.4,268.6,121.5,264.8,121.5z M264.8,110.3c-2.4,0-4.3,1.9-4.3,4.3c0,2.4,1.9,4.3,4.3,4.3c2.4,0,4.3-1.9,4.3-4.3
		C269.1,112.2,267.2,110.3,264.8,110.3z"/>
	<path class="st0" d="M278.9,144.7h-2.6V137c0-6.4-5.2-11.5-11.6-11.5s-11.6,5.2-11.6,11.5v7.8h-2.6V137c0-7.8,6.3-14.1,14.1-14.1
		c7.8,0,14.1,6.3,14.1,14.1V144.7z"/>
	<rect x="269.9" y="135.7" class="st0" width="2.6" height="9"/>
	<rect x="257" y="135.7" class="st0" width="2.6" height="9"/>
</g>
<g>
	<path class="st0" d="M17.6,173.8c-3.8,0-6.9-3.1-6.9-6.9c0-3.8,3.1-6.9,6.9-6.9c3.8,0,6.9,3.1,6.9,6.9
		C24.5,170.7,21.4,173.8,17.6,173.8z M17.6,162.6c-2.4,0-4.3,1.9-4.3,4.3c0,2.4,1.9,4.3,4.3,4.3c2.4,0,4.3-1.9,4.3-4.3
		C21.9,164.5,20,162.6,17.6,162.6z"/>
	<path class="st0" d="M31.7,197h-2.6v-7.8c0-6.4-5.2-11.5-11.6-11.5S6,182.9,6,189.3v7.8H3.4v-7.8c0-7.8,6.3-14.1,14.1-14.1
		c7.8,0,14.1,6.3,14.1,14.1V197z"/>
	<rect x="22.7" y="188" class="st0" width="2.6" height="9"/>
	<rect x="9.9" y="188" class="st0" width="2.6" height="9"/>
</g>
<g>
	<path class="st0" d="M52.9,173.8c-3.8,0-6.9-3.1-6.9-6.9c0-3.8,3.1-6.9,6.9-6.9c3.8,0,6.9,3.1,6.9,6.9
		C59.8,170.7,56.7,173.8,52.9,173.8z M52.9,162.6c-2.4,0-4.3,1.9-4.3,4.3c0,2.4,1.9,4.3,4.3,4.3c2.4,0,4.3-1.9,4.3-4.3
		C57.2,164.5,55.3,162.6,52.9,162.6z"/>
	<path class="st0" d="M67,197h-2.6v-7.8c0-6.4-5.2-11.5-11.6-11.5s-11.6,5.2-11.6,11.5v7.8h-2.6v-7.8c0-7.8,6.3-14.1,14.1-14.1
		c7.8,0,14.1,6.3,14.1,14.1V197z"/>
	<rect x="58" y="188" class="st0" width="2.6" height="9"/>
	<rect x="45.2" y="188" class="st0" width="2.6" height="9"/>
</g>
<g>
	<path class="st0" d="M88.2,173.8c-3.8,0-6.9-3.1-6.9-6.9c0-3.8,3.1-6.9,6.9-6.9c3.8,0,6.9,3.1,6.9,6.9
		C95.1,170.7,92,173.8,88.2,173.8z M88.2,162.6c-2.4,0-4.3,1.9-4.3,4.3c0,2.4,1.9,4.3,4.3,4.3c2.4,0,4.3-1.9,4.3-4.3
		C92.5,164.5,90.6,162.6,88.2,162.6z"/>
	<path class="st0" d="M102.3,197h-2.6v-7.8c0-6.4-5.2-11.5-11.6-11.5c-6.4,0-11.6,5.2-11.6,11.5v7.8h-2.6v-7.8
		c0-7.8,6.3-14.1,14.1-14.1c7.8,0,14.1,6.3,14.1,14.1V197z"/>
	<rect x="93.3" y="188" class="st0" width="2.6" height="9"/>
	<rect x="80.5" y="188" class="st0" width="2.6" height="9"/>
</g>
<g>
	<path class="st0" d="M123.5,173.8c-3.8,0-6.9-3.1-6.9-6.9c0-3.8,3.1-6.9,6.9-6.9c3.8,0,6.9,3.1,6.9,6.9
		C130.4,170.7,127.3,173.8,123.5,173.8z M123.5,162.6c-2.4,0-4.3,1.9-4.3,4.3c0,2.4,1.9,4.3,4.3,4.3c2.4,0,4.3-1.9,4.3-4.3
		C127.8,164.5,125.9,162.6,123.5,162.6z"/>
	<path class="st0" d="M137.6,197h-2.6v-7.8c0-6.4-5.2-11.5-11.6-11.5s-11.6,5.2-11.6,11.5v7.8h-2.6v-7.8c0-7.8,6.3-14.1,14.1-14.1
		c7.8,0,14.1,6.3,14.1,14.1V197z"/>
	<rect x="128.6" y="188" class="st0" width="2.6" height="9"/>
	<rect x="115.8" y="188" class="st0" width="2.6" height="9"/>
</g>
<g class="st1">
	<path class="st0" d="M158.8,173.8c-3.8,0-6.9-3.1-6.9-6.9c0-3.8,3.1-6.9,6.9-6.9c3.8,0,6.9,3.1,6.9,6.9
		C165.7,170.7,162.6,173.8,158.8,173.8z M158.8,162.6c-2.4,0-4.3,1.9-4.3,4.3c0,2.4,1.9,4.3,4.3,4.3c2.4,0,4.3-1.9,4.3-4.3
		C163.2,164.5,161.2,162.6,158.8,162.6z"/>
	<path class="st0" d="M173,197h-2.6v-7.8c0-6.4-5.2-11.5-11.6-11.5s-11.6,5.2-11.6,11.5v7.8h-2.6v-7.8c0-7.8,6.3-14.1,14.1-14.1
		c7.8,0,14.1,6.3,14.1,14.1V197z"/>
	<rect x="164" y="188" class="st0" width="2.6" height="9"/>
	<rect x="151.1" y="188" class="st0" width="2.6" height="9"/>
</g>
<g class="st1">
	<path class="st0" d="M194.1,173.8c-3.8,0-6.9-3.1-6.9-6.9c0-3.8,3.1-6.9,6.9-6.9c3.8,0,6.9,3.1,6.9,6.9
		C201,170.7,197.9,173.8,194.1,173.8z M194.1,162.6c-2.4,0-4.3,1.9-4.3,4.3c0,2.4,1.9,4.3,4.3,4.3c2.4,0,4.3-1.9,4.3-4.3
		C198.5,164.5,196.5,162.6,194.1,162.6z"/>
	<path class="st0" d="M208.3,197h-2.6v-7.8c0-6.4-5.2-11.5-11.6-11.5s-11.6,5.2-11.6,11.5v7.8H180v-7.8c0-7.8,6.3-14.1,14.1-14.1
		c7.8,0,14.1,6.3,14.1,14.1V197z"/>
	<rect x="199.3" y="188" class="st0" width="2.6" height="9"/>
	<rect x="186.4" y="188" class="st0" width="2.6" height="9"/>
</g>
<g class="st1">
	<path class="st0" d="M229.4,173.8c-3.8,0-6.9-3.1-6.9-6.9c0-3.8,3.1-6.9,6.9-6.9c3.8,0,6.9,3.1,6.9,6.9
		C236.4,170.7,233.3,173.8,229.4,173.8z M229.4,162.6c-2.4,0-4.3,1.9-4.3,4.3c0,2.4,1.9,4.3,4.3,4.3c2.4,0,4.3-1.9,4.3-4.3
		C233.8,164.5,231.8,162.6,229.4,162.6z"/>
	<path class="st0" d="M243.6,197H241v-7.8c0-6.4-5.2-11.5-11.6-11.5c-6.4,0-11.6,5.2-11.6,11.5v7.8h-2.6v-7.8
		c0-7.8,6.3-14.1,14.1-14.1c7.8,0,14.1,6.3,14.1,14.1V197z"/>
	<rect x="234.6" y="188" class="st0" width="2.6" height="9"/>
	<rect x="221.7" y="188" class="st0" width="2.6" height="9"/>
</g>
<g class="st1">
	<path class="st0" d="M264.8,173.8c-3.8,0-6.9-3.1-6.9-6.9c0-3.8,3.1-6.9,6.9-6.9c3.8,0,6.9,3.1,6.9,6.9
		C271.7,170.7,268.6,173.8,264.8,173.8z M264.8,162.6c-2.4,0-4.3,1.9-4.3,4.3c0,2.4,1.9,4.3,4.3,4.3c2.4,0,4.3-1.9,4.3-4.3
		C269.1,164.5,267.2,162.6,264.8,162.6z"/>
	<path class="st0" d="M278.9,197h-2.6v-7.8c0-6.4-5.2-11.5-11.6-11.5s-11.6,5.2-11.6,11.5v7.8h-2.6v-7.8c0-7.8,6.3-14.1,14.1-14.1
		c7.8,0,14.1,6.3,14.1,14.1V197z"/>
	<rect x="269.9" y="188" class="st0" width="2.6" height="9"/>
	<rect x="257" y="188" class="st0" width="2.6" height="9"/>
</g>
</svg>
